<svg width="32" height="32" viewBox="0 0 32 32" fill="none" xmlns="http://www.w3.org/2000/svg">
  <!-- Purple world map outline -->
  <circle cx="16" cy="16" r="14" stroke="#a855f7" stroke-width="2" fill="none"/>
  
  <!-- Continents outline - simplified world map -->
  <!-- Americas -->
  <path d="M 8 12 L 7 14 L 6 16 L 7 18 L 8 19 L 9 18 L 10 16 L 10 14 L 9 12 Z" stroke="#a855f7" stroke-width="1.5" fill="none" stroke-linejoin="round"/>
  
  <!-- Europe/Africa -->
  <path d="M 14 10 L 15 11 L 16 11 L 17 12 L 17 14 L 16 16 L 15 18 L 14 20 L 13 19 L 13 17 L 14 15 L 14 13 L 13 11 Z" stroke="#a855f7" stroke-width="1.5" fill="none" stroke-linejoin="round"/>
  
  <!-- Asia/Australia -->
  <path d="M 19 11 L 21 12 L 23 13 L 24 15 L 23 17 L 21 18 L 20 17 L 19 15 L 19 13 L 20 11 Z" stroke="#a855f7" stroke-width="1.5" fill="none" stroke-linejoin="round"/>
  
  <!-- Small islands/details -->
  <circle cx="22" cy="20" r="1.5" stroke="#a855f7" stroke-width="1" fill="none"/>
  <circle cx="11" cy="23" r="1" stroke="#a855f7" stroke-width="1" fill="none"/>
  
  <!-- Grid lines -->
  <line x1="16" y1="2" x2="16" y2="30" stroke="#a855f7" stroke-width="0.5" opacity="0.3"/>
  <line x1="2" y1="16" x2="30" y2="16" stroke="#a855f7" stroke-width="0.5" opacity="0.3"/>
  <ellipse cx="16" cy="16" rx="14" ry="7" stroke="#a855f7" stroke-width="0.5" opacity="0.3" fill="none"/>
</svg>
